<svg width="19" height="23" viewBox="0 0 19 23" fill="none" xmlns="http://www.w3.org/2000/svg">
<path d="M1.9 3.99625V16.2917C1.89981 17.5082 2.35834 18.6793 3.18258 19.5673C4.00681 20.4554 5.13503 20.9939 6.3384 21.0737L6.65 21.0833H15.0366C14.8402 21.6438 14.4763 22.1291 13.9952 22.4723C13.5141 22.8156 12.9393 22.9999 12.35 23H5.7C4.18827 23 2.73845 22.3942 1.66949 21.3159C0.600534 20.2375 3.9185e-07 18.775 3.9185e-07 17.25V6.70833C-0.000308712 6.11354 0.182263 5.53329 0.522554 5.04756C0.862844 4.56182 1.3441 4.19451 1.9 3.99625ZM16.15 0C16.9059 0 17.6308 0.302901 18.1653 0.842068C18.6997 1.38124 19 2.1125 19 2.875V16.2917C19 17.0542 18.6997 17.7854 18.1653 18.3246C17.6308 18.8638 16.9059 19.1667 16.15 19.1667H6.65C5.89413 19.1667 5.16922 18.8638 4.63475 18.3246C4.10027 17.7854 3.8 17.0542 3.8 16.2917V2.875C3.8 2.1125 4.10027 1.38124 4.63475 0.842068C5.16922 0.302901 5.89413 0 6.65 0H16.15ZM16.15 1.91667H6.65C6.39804 1.91667 6.15641 2.01763 5.97825 2.19736C5.80009 2.37708 5.7 2.62083 5.7 2.875V16.2917C5.7 16.5458 5.80009 16.7896 5.97825 16.9693C6.15641 17.149 6.39804 17.25 6.65 17.25H16.15C16.402 17.25 16.6436 17.149 16.8218 16.9693C16.9999 16.7896 17.1 16.5458 17.1 16.2917V2.875C17.1 2.62083 16.9999 2.37708 16.8218 2.19736C16.6436 2.01763 16.402 1.91667 16.15 1.91667Z" fill="#626262"/>
</svg>
