<svg width="23" height="22" viewBox="0 0 23 22" fill="none" xmlns="http://www.w3.org/2000/svg">
<path d="M11.7246 9V13.26H17.7655C17.5002 14.63 16.7042 15.79 15.5103 16.57L19.1532 19.34C21.2757 17.4201 22.5002 14.6001 22.5002 11.2501C22.5002 10.4701 22.4288 9.72005 22.2961 9.00012L11.7246 9Z" fill="#4285F4"/>
<path d="M5.43395 13.0938L4.61234 13.7101L1.7041 15.9301C3.55106 19.52 7.33653 22.0001 11.7243 22.0001C14.7549 22.0001 17.2957 21.02 19.1529 19.3401L15.51 16.5701C14.51 17.2301 13.2345 17.6301 11.7243 17.6301C8.80591 17.6301 6.32637 15.7001 5.43854 13.1001L5.43395 13.0938Z" fill="#34A853"/>
<path d="M1.70401 6.06995C0.938734 7.54988 0.5 9.2199 0.5 10.9999C0.5 12.7798 0.938734 14.4499 1.70401 15.9298C1.70401 15.9397 5.43881 13.0898 5.43881 13.0898C5.21431 12.4298 5.08162 11.7299 5.08162 10.9998C5.08162 10.2697 5.21431 9.56971 5.43881 8.90971L1.70401 6.06995Z" fill="#FBBC05"/>
<path d="M11.7245 4.37999C13.3776 4.37999 14.847 4.93997 16.0205 6.01999L19.2348 2.87003C17.2858 1.09007 14.7552 0 11.7245 0C7.33676 0 3.55106 2.46999 1.7041 6.07L5.43878 8.91C6.3265 6.30997 8.80615 4.37999 11.7245 4.37999Z" fill="#EA4335"/>
</svg>
