<svg width="109" height="48" viewBox="0 0 109 48" fill="none" xmlns="http://www.w3.org/2000/svg">
<g clip-path="url(#clip0_114_2419)">
<g opacity="0.9">
<path d="M39.2593 14.2734C39.4342 14.5128 39.5971 14.7642 39.7402 15.0276C42.0692 12.5975 42.6773 9.896 41.4571 7.42597C41.171 6.93914 40.7576 6.30867 40.4437 5.8418C42.1169 8.11231 41.7115 11.5959 39.2593 14.2694V14.2734Z" fill="#E2FF66"/>
<path d="M40.269 16.2009C40.3764 16.4962 40.4678 16.7994 40.5433 17.1147C42.6338 15.4826 43.4804 13.3159 43.0114 11.4244L43.0034 11.3925C42.8683 10.8857 42.6537 10.2153 42.4947 9.71655C43.2459 11.7676 42.4828 14.2855 40.269 16.2009Z" fill="#E2FF66"/>
<path d="M40.7856 18.4794C40.8254 18.8186 40.8492 19.1657 40.8612 19.5209C42.6934 18.4395 43.6075 16.9311 43.5518 15.4467L43.524 14.8162L43.4286 13.7588C43.6273 15.4188 42.7252 17.1825 40.7856 18.4834V18.4794Z" fill="#E2FF66"/>
<path d="M40.8292 21.0411C40.8014 21.4122 40.7616 21.7913 40.71 22.1744C42.3037 21.528 43.19 20.5224 43.337 19.4171L43.4762 18.196L43.5119 17.769C43.4285 19.026 42.5223 20.2231 40.8332 21.0371L40.8292 21.0411Z" fill="#E2FF66"/>
<path d="M40.4159 23.8105C40.3285 24.2056 40.2251 24.6046 40.1099 25.0076C41.489 24.7163 42.2958 24.1098 42.5104 23.3357C42.6455 22.8528 42.8005 22.2024 42.9237 21.7156C42.7211 22.6174 41.8785 23.3796 40.4159 23.8065V23.8105Z" fill="#E2FF66"/>
<path d="M39.5576 26.7075C39.4066 27.1145 39.2476 27.5255 39.0728 27.9365C40.2532 27.9485 40.9487 27.6652 41.1514 27.1783C41.3501 26.7035 41.5925 26.061 41.7793 25.5862C41.5607 26.1887 40.8175 26.5997 39.5576 26.7075Z" fill="#E2FF66"/>
<path d="M38.274 29.6644C38.0673 30.0754 37.8487 30.4864 37.6143 30.8974C38.6079 31.1847 39.1683 31.1768 39.3034 30.9334L40.134 29.3811C39.9631 29.7243 39.3471 29.84 38.274 29.6684V29.6644Z" fill="#E2FF66"/>
<path d="M35.7578 33.8023C36.5646 34.345 36.966 34.5884 36.9859 34.5565L37.1687 34.3051L38.0153 33.0641C37.9398 33.1798 37.4708 33.0402 36.5845 32.6052C36.3222 33.0083 36.0479 33.4113 35.7618 33.8063L35.7578 33.8023Z" fill="#E2FF66"/>
<path d="M33.5166 36.5757C34.1287 37.3778 34.3393 37.8566 34.1962 38.0083L34.856 37.2581L35.4164 36.5917C35.4482 36.464 35.2176 36.1727 34.4943 35.4385C34.3473 35.618 34.1962 35.7976 34.0452 35.9732C33.8703 36.1767 33.6955 36.3762 33.5166 36.5717V36.5757Z" fill="#E2FF66"/>
<path d="M31.1082 41.0608L32.2925 39.9715L32.4237 39.8438C32.6781 39.5964 32.5946 38.9938 32.1018 38.0361C31.76 38.3673 31.4142 38.6866 31.0645 38.9938C31.4659 40.0592 31.4539 40.7536 31.1042 41.0568L31.1082 41.0608Z" fill="#E2FF66"/>
<path d="M28.5323 40.9651C28.7032 42.3059 28.425 43.2077 27.8169 43.6147C28.2461 43.3234 28.7946 42.9124 29.2159 42.6092C29.7047 42.238 29.8677 41.424 29.5974 40.199C29.2437 40.4663 28.89 40.7217 28.5323 40.9651Z" fill="#E2FF66"/>
<path d="M25.9769 42.4614C25.8815 44.1014 25.2615 45.1948 24.3354 45.6497C24.7846 45.4262 25.3688 45.103 25.81 44.8636C26.5969 44.4207 27.0619 43.4071 27.042 41.8948C26.6883 42.0983 26.3306 42.2858 25.9769 42.4614Z" fill="#E2FF66"/>
<path d="M23.469 43.4709C23.0437 45.4462 21.9905 46.7151 20.667 47.1181C21.136 46.9745 21.752 46.747 22.213 46.5834C23.9856 45.8652 24.3513 43.9338 24.5063 43.1118C24.1565 43.2475 23.8107 43.3672 23.469 43.4709Z" fill="#E2FF66"/>
<path d="M22.0542 43.822C21.7203 43.8859 21.3944 43.9338 21.0725 43.9657C20.2259 46.3359 18.5726 47.7406 16.7603 47.9161L17.3127 47.8523L18.4096 47.6767C20.0113 47.3814 21.3984 46.0247 22.0581 43.822H22.0542Z" fill="#E2FF66"/>
<path d="M19.7492 44.0136C19.4432 44.0017 19.1412 43.9777 18.8471 43.9338C17.456 46.743 14.98 48.1876 12.647 47.8404C13.0086 47.8923 13.4975 47.9322 13.8631 47.9721L14.3878 48C16.5022 48.0798 18.6006 46.6353 19.7492 44.0176V44.0136Z" fill="#E2FF66"/>
<path d="M17.6586 43.6584C17.3843 43.5706 17.122 43.4669 16.8637 43.3472C14.6062 46.6233 11.4784 47.8363 8.49756 46.5953C9.01026 46.8228 9.70578 47.0861 10.2344 47.2777C11.5539 47.6528 14.9123 48.0558 17.6586 43.6544V43.6584Z" fill="#E2FF66"/>
<path d="M15.846 42.7448C15.8182 42.7248 15.7904 42.7049 15.7665 42.6849C15.5638 42.5333 15.373 42.3697 15.1862 42.1941C12.6227 45.3146 8.02038 46.8508 4.75342 44.0177C5.13099 44.3648 5.65561 44.7998 6.05305 45.123L6.23587 45.2587C9.03386 47.2938 13.3183 46.1805 15.846 42.7488V42.7448Z" fill="#E2FF66"/>
<path d="M14.3795 41.2603C14.2086 41.0169 14.0496 40.7655 13.9065 40.4982C10.9098 43.4391 6.21205 44.1174 3.41804 42.0185C2.81393 41.5636 2.34892 41.0169 2.01904 40.4104C2.29725 40.9012 2.70264 41.5317 3.01265 42.0026C3.30675 42.4096 3.66445 42.7807 4.09368 43.0999C6.89167 45.2028 11.498 44.3768 14.3834 41.2603H14.3795Z" fill="#E2FF66"/>
<path d="M13.3899 39.3171C13.2865 39.0218 13.1991 38.7145 13.1236 38.3993C9.94404 40.8534 5.10321 41.1407 2.30522 39.0378C1.33944 38.3115 0.743279 37.3977 0.508789 36.4121L0.552508 36.5957C0.67174 37.0546 0.866486 37.6611 1.00559 38.116C1.30367 38.9619 1.86406 39.7281 2.68279 40.3426C5.48078 42.4455 10.2739 41.9866 13.3899 39.3171Z" fill="#E2FF66"/>
<path d="M1.97535 37.0863C4.77333 39.1892 9.65788 39.1613 12.8891 37.0225C12.8533 36.6833 12.8295 36.3361 12.8215 35.981C9.57442 37.8764 4.67397 37.7088 1.87599 35.6059C0.647897 34.6841 0.027889 33.5429 -0.00390625 32.3896L0.0318634 33.1718L0.107377 34.0696C0.230584 35.1749 0.846618 36.2403 1.97138 37.0863H1.97535Z" fill="#E2FF66"/>
<path d="M12.9926 33.3154C9.78528 34.5924 4.91663 33.926 2.11865 31.823C0.703756 30.7576 0.0877229 29.5326 0.242725 28.4153L0.0837485 29.788L0.0599021 30.0593C-0.027535 31.2165 0.588498 32.4256 1.93582 33.4391C4.73381 35.5421 9.62631 35.997 12.8615 34.4567C12.8893 34.0816 12.933 33.7025 12.9887 33.3194L12.9926 33.3154Z" fill="#E2FF66"/>
<path d="M2.99705 27.7968C1.451 26.6356 0.827022 25.4425 1.09331 24.5007C0.954204 24.9836 0.799202 25.634 0.67202 26.1208C0.0798334 29.6084 7.8657 33.0401 13.2987 31.6794C13.3901 31.2843 13.4935 30.8813 13.6127 30.4783C10.5484 31.0968 5.79503 29.8957 2.99705 27.7968Z" fill="#E2FF66"/>
<path d="M4.49127 23.631C2.85778 22.402 2.18611 21.3286 2.46829 20.6582C2.2656 21.1331 2.02316 21.7715 1.83239 22.2504C1.54225 23.0404 2.19008 24.1737 3.79177 25.3788C6.58975 27.4817 11.2358 29.002 14.169 28.7746C14.32 28.3636 14.4829 27.9566 14.6618 27.5416C11.84 27.4817 7.28528 25.7299 4.49127 23.627V23.631Z" fill="#E2FF66"/>
<path d="M15.4726 25.8216C15.6832 25.4106 15.9058 24.9996 16.1363 24.5886C13.6563 23.8464 9.37983 21.5399 6.58184 19.437C4.89669 18.1721 4.13361 17.2663 4.3363 16.9111L3.4977 18.4634C3.25129 18.9542 3.97463 19.9318 5.63991 21.1848C8.43789 23.2877 12.8376 25.3627 15.4726 25.8216Z" fill="#E2FF66"/>
<path d="M17.1817 22.8887C17.448 22.4857 17.7222 22.0867 18.0124 21.6876C15.9656 20.271 12.0428 17.4219 9.24483 15.319C7.53981 14.0381 6.64954 13.3318 6.67339 13.2959L6.39121 13.687L5.64004 14.7883C5.53273 14.9559 6.36736 15.746 8.06443 17.0229C10.8624 19.1258 14.9441 21.7515 17.1817 22.8887Z" fill="#E2FF66"/>
<path d="M19.2839 20.0515C19.4031 19.9078 19.5223 19.7682 19.6455 19.6245C19.8522 19.3851 20.0589 19.1497 20.2695 18.9222C18.7473 16.8672 15.2419 13.4953 12.4479 11.3924C10.7588 10.1235 9.71349 9.60474 9.48298 9.84815L8.70399 10.726L8.25488 11.2567C8.37014 11.1211 9.34784 11.7156 11.0489 12.9925C13.8469 15.0955 17.5312 18.2518 19.2839 20.0475V20.0515Z" fill="#E2FF66"/>
<path d="M21.6807 17.4659C22.0225 17.1347 22.3683 16.8194 22.7181 16.5162C21.7642 13.9025 18.7198 10.0797 15.9258 7.98078C14.2804 6.74377 13.0881 6.38065 12.5754 6.81959L11.2638 8.01669L11.2559 8.02467C11.6454 7.64958 12.782 8.07256 14.4513 9.32952C17.2493 11.4324 20.4844 15.0756 21.6807 17.4659Z" fill="#E2FF66"/>
<path d="M24.1926 15.3269C24.5463 15.0595 24.9 14.8081 25.2577 14.5687C24.8881 11.5041 22.3246 7.31425 19.5266 5.21532C17.9647 4.04216 16.6571 3.76682 15.8742 4.28557C15.4449 4.57287 14.8925 4.98388 14.4712 5.28316C15.1429 4.78037 16.4107 5.08364 18.0124 6.28873C20.8104 8.39164 23.5766 12.4379 24.1886 15.3269H24.1926Z" fill="#E2FF66"/>
<path d="M26.7481 13.6471C27.1018 13.4475 27.4595 13.26 27.8132 13.0884C28.0358 9.68065 25.9492 5.21544 23.1552 3.11252C21.7125 2.03113 20.3651 1.78373 19.3676 2.27055C18.9185 2.49002 18.3342 2.81324 17.8931 3.04468C18.8112 2.53392 20.1505 2.78132 21.6489 3.9066C24.4469 6.00952 26.7322 10.367 26.756 13.6471H26.7481Z" fill="#E2FF66"/>
<path d="M25.2376 2.21072C28.0356 4.31364 29.844 8.89856 29.2796 12.454C29.6293 12.3223 29.9751 12.2066 30.3169 12.1028C31.1197 8.4676 29.5061 3.81485 26.7081 1.71592C25.4443 0.766213 24.1526 0.498859 23.0437 0.830059L22.9563 0.854001C22.5112 0.989673 21.9309 1.20116 21.4897 1.3528C22.5668 0.94977 23.8943 1.20515 25.2336 2.21471L25.2376 2.21072Z" fill="#E2FF66"/>
<path d="M28.7113 1.22905C31.5093 3.33197 32.8606 8.04458 31.7279 11.7596C32.0578 11.6997 32.3876 11.6559 32.7096 11.6239C34.0688 7.87699 32.9003 3.13644 30.1024 1.03752C29.0889 0.275358 27.9999 -0.03589 26.9586 0.0558882L26.2472 0.135695L25.3013 0.283339C26.3942 0.0878111 27.5826 0.383097 28.7073 1.22905H28.7113Z" fill="#E2FF66"/>
<path d="M31.9702 0.989693C34.7682 3.09261 35.6863 7.83714 34.025 11.5921C34.331 11.604 34.6331 11.636 34.9232 11.6799C36.7951 7.94488 36.044 3.21631 33.246 1.11339C32.5664 0.602628 31.8311 0.29537 31.076 0.171669C30.6626 0.107824 30.1102 0.0599395 29.6929 0.0160455L29.3232 -0.00390625C30.2294 0.0399877 31.1356 0.359216 31.9662 0.985702L31.9702 0.989693Z" fill="#E2FF66"/>
<path d="M33.8822 0.90985C33.755 0.853985 33.6238 0.806101 33.4927 0.762207C33.6119 0.806101 33.747 0.857976 33.8822 0.90985Z" fill="#E2FF66"/>
<path d="M36.1075 11.9671C36.3778 12.0589 36.644 12.1666 36.8984 12.2863C39.2274 8.69501 38.8459 4.07817 36.0479 1.97525C35.7816 1.77574 35.5074 1.60814 35.2212 1.46848C34.8277 1.28891 34.3309 1.0854 33.8818 0.913818C34.2435 1.06944 34.5933 1.27295 34.9271 1.52434C37.7251 3.62726 38.2537 8.30396 36.1075 11.9711V11.9671Z" fill="#E2FF66"/>
<path d="M37.9084 12.9008C37.9084 12.9008 37.9203 12.9088 37.9243 12.9128C38.1468 13.0804 38.3575 13.264 38.5602 13.4635C41.0919 10.367 41.2032 6.33271 38.9338 4.09811C38.5204 3.71105 37.9441 3.22422 37.507 2.86509L37.4712 2.83716C37.4712 2.83716 37.4791 2.84514 37.4831 2.84514C40.2811 4.94806 40.4719 9.44918 37.9084 12.8968V12.9008Z" fill="#E2FF66"/>
</g>
</g>
<path d="M29.9175 39V21.5454H32.551V36.7329H40.4601V39H29.9175Z" fill="white"/>
<path d="M47.0695 39.2897C46.2399 39.2897 45.4899 39.1363 44.8195 38.8295C44.149 38.517 43.6178 38.0653 43.2257 37.4744C42.8394 36.8835 42.6462 36.159 42.6462 35.3011C42.6462 34.5625 42.7882 33.9545 43.0723 33.4772C43.3564 33 43.7399 32.6221 44.2229 32.3437C44.7058 32.0653 45.2456 31.8551 45.8422 31.713C46.4388 31.571 47.0467 31.463 47.6661 31.3892C48.4501 31.2983 49.0865 31.2244 49.5752 31.1676C50.0638 31.1051 50.4189 31.0056 50.6405 30.8693C50.8621 30.7329 50.9729 30.5113 50.9729 30.2045V30.1448C50.9729 29.4005 50.7626 28.8238 50.3422 28.4147C49.9274 28.0056 49.3081 27.8011 48.4842 27.8011C47.6263 27.8011 46.9502 27.9914 46.4558 28.3721C45.9672 28.7471 45.6291 29.1647 45.4416 29.625L43.0467 29.0795C43.3308 28.284 43.7456 27.642 44.2911 27.1534C44.8422 26.659 45.4757 26.3011 46.1916 26.0795C46.9075 25.8522 47.6604 25.7386 48.4502 25.7386C48.9729 25.7386 49.5269 25.8011 50.1121 25.9261C50.703 26.0454 51.2541 26.267 51.7655 26.5909C52.2825 26.9147 52.7058 27.3778 53.0354 27.9801C53.3649 28.5767 53.5297 29.3522 53.5297 30.3068V39H51.0411V37.2102H50.9388C50.774 37.5397 50.5269 37.8636 50.1973 38.1818C49.8678 38.5 49.4445 38.7642 48.9274 38.9744C48.4104 39.1846 47.7911 39.2897 47.0695 39.2897ZM47.6234 37.2443C48.328 37.2443 48.9303 37.1051 49.4303 36.8267C49.9359 36.5483 50.3195 36.1846 50.5808 35.7358C50.8479 35.2812 50.9814 34.7954 50.9814 34.2784V32.5909C50.8905 32.6818 50.7144 32.767 50.453 32.8465C50.1973 32.9204 49.9047 32.9858 49.5752 33.0426C49.2456 33.0937 48.9246 33.142 48.6121 33.1875C48.2996 33.2272 48.0382 33.2613 47.828 33.2897C47.3337 33.3522 46.882 33.4573 46.4729 33.6051C46.0695 33.7528 45.7456 33.9659 45.5013 34.2443C45.2627 34.517 45.1433 34.8806 45.1433 35.3352C45.1433 35.9659 45.3763 36.4431 45.8422 36.767C46.3081 37.0852 46.9019 37.2443 47.6234 37.2443Z" fill="white"/>
<path d="M59.4722 31.2272V39H56.9239V21.5454H59.4381V28.0397H59.6C59.9068 27.3352 60.3756 26.7755 61.0063 26.3608C61.6369 25.946 62.4608 25.7386 63.4778 25.7386C64.3756 25.7386 65.1597 25.9233 65.8301 26.2926C66.5063 26.6619 67.029 27.213 67.3983 27.946C67.7733 28.6733 67.9608 29.5823 67.9608 30.6733V39H65.4125V30.9801C65.4125 30.0198 65.1654 29.2755 64.671 28.7471C64.1767 28.213 63.4892 27.946 62.6085 27.946C62.0063 27.946 61.4665 28.0738 60.9892 28.3295C60.5176 28.5852 60.1455 28.9602 59.8727 29.4545C59.6057 29.9431 59.4722 30.534 59.4722 31.2272Z" fill="white"/>
<path d="M77.0034 39.2642C75.7136 39.2642 74.6029 38.9886 73.671 38.4375C72.7449 37.8806 72.029 37.0994 71.5233 36.0937C71.0233 35.0823 70.7733 33.8977 70.7733 32.5397C70.7733 31.1988 71.0233 30.017 71.5233 28.9943C72.029 27.9715 72.7335 27.1733 73.6369 26.5994C74.546 26.0255 75.6085 25.7386 76.8244 25.7386C77.5631 25.7386 78.279 25.8608 78.9722 26.1051C79.6653 26.3494 80.2875 26.7329 80.8386 27.2556C81.3898 27.7784 81.8244 28.4573 82.1426 29.2926C82.4608 30.1221 82.6199 31.1306 82.6199 32.3181V33.2215H72.2136V31.3125H80.1227C80.1227 30.642 79.9864 30.0483 79.7136 29.5312C79.4409 29.0085 79.0574 28.5965 78.5631 28.2954C78.0744 27.9943 77.5006 27.8437 76.8415 27.8437C76.1256 27.8437 75.5006 28.0198 74.9665 28.3721C74.4381 28.7187 74.029 29.1733 73.7392 29.7358C73.4551 30.2926 73.3131 30.8977 73.3131 31.5511V33.0426C73.3131 33.9176 73.4665 34.6619 73.7733 35.2755C74.0858 35.8892 74.5205 36.3579 75.0773 36.6818C75.6341 37 76.2847 37.159 77.029 37.159C77.5119 37.159 77.9523 37.0909 78.35 36.9545C78.7477 36.8125 79.0915 36.6022 79.3813 36.3238C79.671 36.0454 79.8926 35.7017 80.046 35.2926L82.458 35.7272C82.2648 36.4375 81.9182 37.0596 81.4182 37.5937C80.9239 38.1221 80.3017 38.534 79.5517 38.8295C78.8074 39.1193 77.958 39.2642 77.0034 39.2642Z" fill="white"/>
<path d="M91.5581 25.909V27.9545H84.4075V25.909H91.5581ZM86.3251 22.7727H88.8734V35.1562C88.8734 35.6505 88.9473 36.0227 89.095 36.2727C89.2428 36.517 89.4331 36.6846 89.6661 36.7755C89.9047 36.8608 90.1632 36.9034 90.4416 36.9034C90.6462 36.9034 90.8252 36.8892 90.9786 36.8608C91.132 36.8323 91.2513 36.8096 91.3365 36.7926L91.7967 38.8977C91.649 38.9545 91.4388 39.0113 91.1661 39.0681C90.8933 39.1306 90.5524 39.1647 90.1433 39.1704C89.4729 39.1818 88.8479 39.0625 88.2683 38.8125C87.6888 38.5625 87.22 38.1761 86.8621 37.6534C86.5041 37.1306 86.3251 36.4744 86.3251 35.6846V22.7727Z" fill="white"/>
<path d="M97.2065 31.2272V39H94.6582V21.5454H97.1725V28.0397H97.3344C97.6412 27.3352 98.11 26.7755 98.7406 26.3608C99.3713 25.946 100.195 25.7386 101.212 25.7386C102.11 25.7386 102.894 25.9233 103.564 26.2926C104.241 26.6619 104.763 27.213 105.133 27.946C105.508 28.6733 105.695 29.5823 105.695 30.6733V39H103.147V30.9801C103.147 30.0198 102.9 29.2755 102.405 28.7471C101.911 28.213 101.224 27.946 100.343 27.946C99.7406 27.946 99.2009 28.0738 98.7236 28.3295C98.252 28.5852 97.8798 28.9602 97.6071 29.4545C97.3401 29.9431 97.2065 30.534 97.2065 31.2272Z" fill="white"/>
<defs>
<clipPath id="clip0_114_2419">
<rect width="43.5556" height="48" fill="white"/>
</clipPath>
</defs>
</svg>
